<?xml version="1.0" encoding="utf-8"?>
<!-- Generator: Adobe Illustrator 24.0.1, SVG Export Plug-In . SVG Version: 6.00 Build 0)  -->
<svg version="1.1" id="svg2" xmlns:svg="http://www.w3.org/2000/svg"
	 xmlns="http://www.w3.org/2000/svg" xmlns:xlink="http://www.w3.org/1999/xlink" x="0px" y="0px" viewBox="0 0 449.9 368.8"
	 style="enable-background:new 0 0 449.9 368.8;" xml:space="preserve">
<style type="text/css">
	.st0{fill-rule:evenodd;clip-rule:evenodd;fill:#D3D3D3;}
</style>
<g>
	<path class="st0" d="M292.8,166.1c0.1,0.2,0.2,0.3,0.3,0.4C293,166.4,292.9,166.3,292.8,166.1C292.8,166.1,292.8,166.1,292.8,166.1
		z"/>
	<path class="st0" d="M293.4,166.7c0,0-0.1-0.1-0.1-0.1C293.3,166.6,293.3,166.7,293.4,166.7z"/>
	<path class="st0" d="M296.3,166.8c0.2,0,0.5,0,0.7,0C296.7,166.8,296.5,166.8,296.3,166.8z"/>
	<path class="st0" d="M167.5,209.6C167.5,209.6,167.5,209.7,167.5,209.6c0.1,0,0.1,0,0.1,0C167.5,209.6,167.5,209.6,167.5,209.6z"/>
	<path class="st0" d="M314.4,111.2C314.4,111.2,314.4,111.2,314.4,111.2C314.4,111.2,314.4,111.2,314.4,111.2
		C314.4,111.2,314.4,111.2,314.4,111.2z"/>
	<path class="st0" d="M267.1,239.5C267.1,239.5,267.1,239.5,267.1,239.5C267.1,239.5,267.1,239.5,267.1,239.5z"/>
	<path class="st0" d="M285.1,347.6c0,0.1,0,0.2,0.1,0.3c0-0.4,0-0.8,0.2-1.2C285.1,347,285,347.2,285.1,347.6z"/>
	<path class="st0" d="M284.4,356c0,0.1,0,0.1,0,0.2C284.5,356.1,284.4,356,284.4,356z"/>
	<path class="st0" d="M284.4,355.6c0-0.2,0-0.4,0-0.6C284.4,355.2,284.4,355.4,284.4,355.6z"/>
	<path class="st0" d="M284.5,354.2c0,0.2-0.1,0.3-0.1,0.5C284.5,354.6,284.5,354.4,284.5,354.2z"/>
	<path class="st0" d="M285.2,352.8c-0.2,0.3-0.4,0.7-0.5,1.1C284.8,353.5,285,353.1,285.2,352.8z"/>
	<path class="st0" d="M285.8,360.9c-0.1-0.2-0.1-0.3-0.2-0.5c0.1,0.4,0.1,0.8,0.2,1.2C285.8,361.4,285.8,361.1,285.8,360.9z"/>
	<path class="st0" d="M285.6,349.9c0.1,0.5,0.2,1,0.1,1.4C285.8,350.9,285.8,350.4,285.6,349.9z"/>
	<path class="st0" d="M449.6,271.2L449.6,271.2c-1.4,0.2-2.7,0.7-4,1.5C446.9,271.9,448.2,271.4,449.6,271.2z"/>
	<path class="st0" d="M448.6,208.7c0.4,0.2,0.8,0.5,1.1,0.8v-0.1C449.4,209,449,208.8,448.6,208.7z"/>
	<path class="st0" d="M447.6,93.8c-1.4,1.2,0.9,1.9,2,1.6v-2.1C449.2,93.8,448.6,93.9,447.6,93.8z"/>
	<path class="st0" d="M413.8,363.4C413.8,363.5,413.9,363.5,413.8,363.4C413.9,363.5,413.9,363.5,413.8,363.4
		C413.8,363.4,413.8,363.4,413.8,363.4z"/>
	<path class="st0" d="M195.5,185.2C195.5,185.2,195.5,185.2,195.5,185.2c-0.2,0-0.5,0-0.7,0.1C195,185.3,195.3,185.3,195.5,185.2z"
		/>
	<path class="st0" d="M280.1,110.8c0-0.1-0.1-0.2-0.1-0.3C280,110.7,280,110.8,280.1,110.8z"/>
	<path class="st0" d="M209,158.3c-0.2-0.2-0.4-0.5-0.6-0.8C208.5,158,208.7,158.3,209,158.3z"/>
	<path class="st0" d="M291.9,85.1C291.9,85.1,291.9,85.1,291.9,85.1c-0.1,0.1-0.3,0.2-0.4,0.3C291.6,85.3,291.8,85.2,291.9,85.1z"/>
	<path class="st0" d="M445,273.1c0.1-0.1,0.3-0.2,0.4-0.3C445.2,272.9,445.1,273,445,273.1z"/>
	<path class="st0" d="M447.1,281.7c1.3,0.4,1.9-0.6,2.5-0.5v-8.7c-0.3,0.1-2.8,0.3-3.9,0.6c-1.2,1.3-0.1,2.7-0.7,4.3
		c0.4,3.1,0,0.4-1.2-0.6c-0.3-1.1-0.9-1.7-0.6-2.3c-0.1,0.1-0.3,0.3-0.4,0.4c0.5-1.5-0.6-2.7,0.7-3.8c0.3-1.4,1.5-3-0.4-3.4
		c-1.2-0.1-2.4-0.1-3.4-0.5c-0.7-1.3-1.7-2.5-3.1-2c-0.4-0.7,0.1-2.8-1.3-3.2c-0.9-1.1-1.1-2.9-1.8-3.9c-1-0.7-3.3,0.3-3.3-1.6
		c-0.1-2,2.3-1.2,3.3-1.2c1.3,0.4,2.5,1.2,3.7,0.4c-0.5-1-2.6-1.1-2.5-2.4c1-1,1.5-1.7,2.2-3.2c1.3,0,2.3-0.4,3.6-0.1
		c2.2-0.4,4.3,0.3,6.5,0.4c-0.7-1-3.1-0.7-2.4-2.3c1-0.9,1.9-1.9,1.9-3.6c0.4-1.4-0.9-2.6,0.3-3.5c-0.4-2-2.5-1.4-3.8-1.9
		c-1.3,1-3.4,1.4-4.5-0.2c-1.8-0.7-3.9-0.8-5.5,0.6c-1.8-0.1-3,2-4.8,2.4c-1.3,0.4-2.7-0.3-3.6,1.3c-0.3,0.1-0.6,0-0.9,0
		c0.2,0.1,0.5,0.2,0.7,0.3c-0.4,1.6-2.7,1.2-2.7,2.5c-0.4,0.8-2.1-0.2-2.9,1.4c-1.2,0.2-2.5,1.1-3.7,0.2c-0.3,1.1-0.6,2.3-1.5,3.7
		c-0.7,1.4-1.5,2.7-2.8,3.4c-1.6,1.3,0.3,2.6,1.3,2.8c0.8,1,2.3,2,2.2,3.7c-0.5,2.9,0.1,0.4,0.9-0.6c0.5,0.9-1.6,2.9-0.3,4
		c-1.6,1.7,0.7,2.2,0.9,3.7c0.3,1.2,1.9,1.6,2.3,3.1c1,1.1,1.7,2.4,2.6,3c0,0.1-0.1,0.1-0.1,0.2c1-0.3,1.6,2,2.6,2.5
		c1.2,1,0.6,3.2,2.1,4.1c0.9,1,1.8,2.1,3.3,1.6c0.9-0.3,3.1,2.1,1.9,2.1c-1.2-0.6-2.5-0.4-3.5,0.2c-1.8,0-0.9,2.5-1.7,3.6
		c-1.1,1.4,1.1,3.1-0.8,3c0,3.1-0.9,0.2-1.7,1.2c-0.1,1.5-0.3,2.3-0.7,3.9c-0.2,0.5-0.3,1.1-0.5,1.5c-0.1-0.1-0.1-0.1-0.2-0.2
		c0,0,0,0,0,0c0.1,0.1,0.2,0.2,0.3,0.4c0.2,1.8-1.1,3.9,0.3,5.3c2,1.5,4.4,1.2,6.6,1.8c0.9,2.7,3.1,4,5.4,4.5
		c2.6,1.2,5.5,1.1,8.2,0.2c2.5-0.7,5-0.6,7.5-1v-17.1c-0.7-0.8-1.5-1.3-2.5-1.1c-1.2,0.5,0.2-2.3,1.4-1.2c0.6,0.2,0.9,0.3,1.1,0.2
		l0,2.1v-2.5c0.1,0.1-0.8-0.8-1.2-1.1c0.7-1.6,1-2.3-1-1.6c-1.4-0.3-2.5,0.7-2.9-1.3c-0.5-1.6,0.3-2.8,0.6-4.3
		C445.6,278.8,446,281,447.1,281.7z"/>
	<path class="st0" d="M444.2,273.6c0.1-0.1,0.3-0.2,0.4-0.3C444.5,273.4,444.4,273.5,444.2,273.6
		C444.2,273.6,444.2,273.6,444.2,273.6z"/>
	<path class="st0" d="M433.1,362.5c-1.2-1.2-0.2-3.2-1.6-4.2c-1.1-0.9-1.7-2.8-2.7-3.5c-1.3,0.2-2.8,0.8-3.9-0.2
		c-1.8,0.1-0.2-3.8-2.2-2.4c-1.2,0.6-0.9,3.5-2.7,3c0-0.1-0.1-0.2-0.2-0.3c0,0.9-2.3,0.5-3,0.6c-0.1,0.1-0.3,0.2-0.5,0.3
		c0,0.1,0,0.1,0,0.2c0,0,0,0,0.1,0c0.6,2.1,0.5,2.6-1,3.4c-1.6,1.6,1.2,1.3,1.9,0.8c1,0.8,1.1,3,1.7,4.4c0.5,0.9,0.4,1.2,0,1.4
		c0.2,0,0.4,0.1,0.6,0.3c0.2,0.9,0.6,1.6,1,2.4h15.5C434.9,366.8,434.2,364.5,433.1,362.5z"/>
	<path class="st0" d="M108.5,191.6l0.1,0.1c0-0.4-0.2-0.6-0.5-0.7C108.3,191,108.5,191.2,108.5,191.6z"/>
	<path class="st0" d="M99.7,187.5c-0.5,0.1-1,0.3-1.3,0.5C98.9,187.8,99.6,187.7,99.7,187.5z"/>
	<path class="st0" d="M98.5,189.7c-0.2-0.1-0.3-0.3-0.5-0.4c0,0-0.1-0.1-0.1-0.1C98,189.3,98.2,189.5,98.5,189.7z"/>
	<path class="st0" d="M285.8,368.6L285.8,368.6c0-0.9,0-1.8,0-2.7C285.8,366.9,285.8,367.7,285.8,368.6z"/>
	<path class="st0" d="M330.6,359c-0.3-1.4-1-3.8-2.3-2c-1.2,1.6,0.3,3.2,0.7,4.8c0.6,2.7,2.5,4.6,3.9,6.8h3.4
		c-1.4-1.6-3.1-3-3.4-5.6C332.6,361.4,330.9,360.8,330.6,359z"/>
	<path class="st0" d="M100.4,190.5c0.5,0.1,1.1,0,1.6-0.2C101.5,190.5,100.9,190.5,100.4,190.5z"/>
	<path class="st0" d="M101.4,185.4c-0.1,0.1-0.2,0.3-0.4,0.5c-0.2,0.3-0.7,0.4-1,0.5C100.6,186.4,101.3,186.2,101.4,185.4z"/>
	<path class="st0" d="M99.6,187.3c-0.1-0.1-0.2-0.1-0.3-0.2c-0.2-0.2-0.3-0.3-0.4-0.3C98.8,186.9,99,187,99.6,187.3z"/>
	<path class="st0" d="M100.3,190.5c-0.1,0-0.3-0.1-0.4-0.1C100.1,190.4,100.2,190.4,100.3,190.5z"/>
	<path class="st0" d="M104.7,189.4c-0.5-0.4-1-0.8-1.4-0.4C103.7,188.8,104.2,189.1,104.7,189.4z"/>
	<path class="st0" d="M105.9,190.3c-0.2,0.5-0.1,0.7,0.1,0.8C105.8,191,105.8,190.8,105.9,190.3
		C105.9,190.3,105.9,190.3,105.9,190.3z"/>
	<path class="st0" d="M108.1,190.9c0,0-0.1,0-0.1,0C108,190.9,108,190.9,108.1,190.9z"/>
	<path class="st0" d="M449.6,60.8V0H0.2v2.6C1.8,3,3.3,3.1,4.9,2.5c4.4-0.6,8.8-1.9,13.3-2c1.6,0.5,2.2,1.9,0.4,2.8
		c-3.9,1.5-8,2.2-11.4,5.1c-0.9,1.7,1.8,1.8,2.8,1.4c2.9-0.4,5.6-2.2,8.4-2.9c3.9-1.6,8.1-2.4,12.1-3.4c3.8-0.8,7.7,0.2,11.5,0.1
		c1.9-0.4,3.9-0.8,5.6-1.9c4.7-1.4,9.5-0.4,14.3-0.2c3.3,0,6.5,1.3,9.8,1.5c1.9,1.3-0.8,2-1.9,2c-3.1,0.7-6.3,0.2-9.1,2.1
		c-2,1.4-4.2,1.7-6.4,2.4c-2.6,1.3-5.3,2.2-8.1,1.8c-3.6,0.1-7.3,0-11,0.1c-2.3,0.5-5.1,0.2-6.5,2.8c0.4,2,2.4,0.2,3.6,0.4
		c3.5-0.8,7.1-0.4,10.6-0.2c0.5,2-1.9,1.9-3,2.1c-2.1,0.3-4.4-0.2-6.3,0.9c-0.8,1.3-0.9,3.1-1.9,4.3c-2,1.3-4.5-0.2-6.6,0.7
		c-1.6,2.3-3.7,4.2-4.9,6.9c0.8,1.1,2.4,1.8,3.2,0.3c2.1-2.3,5.1-1.7,7.7-1.3c1.5,0.4,3.5-0.2,4.4,1.6c-0.5,1.4-2.6,0.1-3.8,0.4
		c-1-0.2-4,0.1-2.3,1.6c2,0.5,4.2,0.5,6.2,1.1c1.9,0.1,4.2-1.2,5.9,0.5c1.2,1.5-0.3,3.2-1.7,2.3c-3.6-0.5-7.1-0.6-10.7-0.7
		c-2.1-0.2-4,1.1-5.9,1.6c-1.9-0.3-3.7-1.1-5.6-0.7c-2,1.2,0.5,1.9,1.6,2.5c3.9,1.9,8.3,1.4,12.3,2c1.9,0.3,3.5,2.5,3.3,4.8
		c-0.9,1.8-2.6,1.5-4.1,1.1c-1.4-0.1-2.9-0.9-4.3-0.2c-0.3,1.8,0.7,3.1,2.1,3c2.3,0.7,4.7,1.2,7,1.7c2,1.3-0.2,2.2-1.5,2.2
		c-4.4,1.1-8.9,0-13.3-0.1c-1.3,0-2.9,1.9-0.6,1.9c2.7,0.1,5.6,0.1,8.1,1.4c0.6,1.7,0.2,3.4-1.6,2.6c-2.1,0-4.3-0.2-6.1,1.1
		c-4.3,0.3-8.8-0.4-12.5-3.1c-2.3-0.5-4.5,1.4-6.7,1.8c-0.3,0-0.6,0-1,0.1v5.7c1,0,2,0.2,3,0.9c3.1,1.5,6.3,2.7,9.5,3.8
		c1.7,0.2,2.8,1.7,3.4,3.5c0.6,1.4,2.5-0.5,3.5-0.3c2.2,1,1.8,4.2,2.3,6.5c-1.3,2.1-3.5-0.1-5.3,0.3C14,79,11.6,79,9.2,78.3
		c-1.6-0.4-2.5-2-3.3-3.5c-1.7-1.4-3.7-2.5-5.7-3.2v8.6c3.1-0.2,6.3,0.1,9.3,1.3c2.8,0.1,5.6-0.1,8.3,0.3c-3.8,2.6-8.2,3.5-12.4,4.9
		C4,87,2.3,85.6,1.2,87.3c-0.3,0.3-0.6,0.5-0.9,0.8v280.6h75.1c3.7-1.4,6.6-4.9,9.7-7.6c1.8-2.5,4.7-4.9,4.1-8.6
		c-1.4-2.2-1.9-5.4-0.2-7.6c1.1-1.8,2.9-3.6,2.4-6.1c0.2-2,2.1-2.8,3-4.3c3.2-3.8,8.8-3.1,11.5-7.8c2.1-3.1,3.1-7,4.4-10.5
		c1.2-0.8,2.6-1.4,3.3,0.5c0.9,2,2.9,2.7,4.6,3.4c3-0.1,6.3,0.8,8.8-1.6c0.6,1.6,1.8,2.3,3.3,2.2c0.5,0.1,0.9,0.1,1.4,0.1
		c0,0.1,0,0.2,0.1,0.4c0,0,0.1,0,0.1,0c0-0.1,0.1-0.3,0.3-0.3c1.8-0.1,3.8-0.8,4.5-3c1.2-1.4,3-1.2,4.4-2.2c1-0.8,2.4,1.6,3.3-0.2
		c1.9-3.2,5.3-4.5,8.5-4.6c2.4-0.3,5.1,0.3,7.3-1.4c1.5,1.1,3.2,0.4,4.6-0.6c1.7-0.4,3.6-0.3,5.4,0c2.3,1,4.7,1.3,7,0.2
		c1.5,0.3,2.2-2.3,3.3-1.9c1.4,0.8,3,2.5,4.3,0.7c1-1.3,3-0.7,3.6,0.8c1.4,0.8,3-0.3,4.5-0.3c0.2,0.1,0.3,0.3,0.2,0.4
		c0.2-0.2,0.4-0.5,0.5-0.7c1.8-0.8,3.2-3,5.4-2.5c1.3,0,2.9,0.6,3.1,2.4c0.3,2.1,2.1,1.3,2.9,0.2c1-1.5,2.6-1.1,1.5,0.9
		c-0.6,1.7-2.9,2.4-2.6,4.6c0.4,1.5,1.4,2.7,2.7,3.2c0.5,1.5,1.2,3.1-0.1,4.4c-0.8,1.8-2.7,2.3-3.8,3.9c-1,0.9-2.3,2.3-0.9,3.6
		c1,1.1,2.3,2.9,3.8,2.6c1.5-1.7,1.8,1.1,2.7,1.9c0.4,0.2,0.7,0.4,1.1,0.5c0,0.3-0.1,0.6-0.1,0.8c0-0.1,0-0.2,0-0.3
		c0.4-1.2,2.4,1,3.4,1.1c2,1.1,4.2,1.5,6.4,0.7c1.9,0.1,3.9,0.3,5.7,0.9c1.3,1.6,3.2,2,4.9,2.1c1.8,0.9,1.3,3.8,2.7,5.3
		c1.2,1.9,3.1,2.7,5,2.8c4,0.2,7.9,1.5,11.2,4.4c1.7,1.2,3.6,3.1,5.6,1.7c1.8-1.2,4.2-2.7,4.3-5.4c-1.2-2.4-1.5-6,0.8-7.7
		c2.3-2.3,5.3-3.2,8.1-4.2c2.6,0,5.5,0.2,7.6,2.3c-0.3,2,1.1,2.6,2.5,2.5c1.8,0,3.3,1.6,5.2,1.3c1.3,0.1,3.7-0.5,3.6,1.9
		c0.9,0.7,0.7,1.2,0.2,1.7c0.1,0,0.2-0.1,0.2-0.1c0.5-1,2.3,0.5,3.4-0.3c3.6-0.6,7,1.2,10.5,1.6c1.6-0.4,1.8,2.1,3.3,1.6
		c1.8-0.1,3.5,0.8,5.2,1.5c2.1,0.9,3.2-2,5.1-2.5c1.8-0.9,3.8-1.3,5.7-2.1c1.5-0.1,3.1,0.1,4.6,0.4c0.3,1.6,1.8,3.1,3.1,2.2
		c1.1,0,2.6,1.7,3.6,0.2c1-1.1,2.3,0.7,3.6,0.5c1.3,0,2.5-0.8,3.5-1.6c2.5-2.5,3.4-6.3,4-10c0.7-0.1,0.7-1.4,1.1-1.9
		c-0.3-0.1-0.3-0.4,0.4-1.1c0.2-1.5,1.6-2.7,1.4-4.3c1.6,0,0.5-2.9,1.8-3.5c0.3-0.6,1.5-0.5,1-1.6c0.1,0,0.2,0,0.3,0
		c-0.9-0.4-1-2.3-0.6-3.4c1.1-1.6-1.6-2.6-0.7-3.7c0.3-0.7,0.5-2.3,1.3-2.4c-0.6-0.3-1.1-0.8-1.3-1.6c-0.1-1.4,2.3-1.6,2.4-3
		c-0.6-2.3-1.9-0.6-3-0.2c-0.1,0.7-1.5,1.9-2.5,0.9c-1.4-1.1-3.4-2-4.8-0.3c-1.3,0.7-1.8,2-2.6,2.9c-1-1.1-2.5,0.7-3.8,0.7
		c-2.4,0.2-4.9-0.6-6.5-2.8c-1.8-1.8-4.3-2.5-6.6-2.8c-1.8-0.4-2.1,1.4-2.1,3.1c0.1,2.6-1.9,0.6-3,1.3c-1.6,0.7-3.9,0.8-4.5-1.6
		c-0.6-2.7-1.4-1.1-2.7-1.5c-1.1-1.2-2.6-1.2-3.6,0.2c-2,0.4,0.7-2.5-0.9-2.3c-1.1-0.3-3,0.6-3.6-0.6c1.1-0.5,2-2.1-0.2-2.4
		c-1.5-0.3,0-2.6-0.6-3.7c-1.3-0.1-2.2-2-3.6-1.2c-1.5-0.1-0.2-4,0.8-1.8c1.5,0.7,2.2-0.8,1-1.7c-2.4-1,2.2-0.9,0.8-2.2
		c-1.7-0.3-0.2-1.3-1.5-2.4c-1.7,0,2.9-2.1,0.8-2.1c-1.5,0.1-2.9,0.9-4.4,0.7c0.6-1.1,0-3,0.9-3.7c0.9-0.5,1.7-1.9,3-2.5
		c1.1,0.4,2.6-1.5,3.3,0.1c0.7,0.7,3.8,0.7,2.3-0.6c-0.2-1,2.3-0.1,1.2,0.6c2.1-0.3,4.2-0.4,6.3,0.1c1.3-1.3-3.2-0.8-0.6-2
		c1.8-0.4,3.6-0.2,5.4-0.8c-1.3-0.3-2.9,0.7-3.8-0.7c-2-0.3-0.6-3.2,0.8-2.3c1.7,0.3,3.7,0.6,5.3,0.1c1.8,0.8,4,1.4,5.8,0.4
		c0.3-1.3,1.5-1.7,2.8-2.4c3.9-2.5,8.3-4.3,12.8-3.2c1.8,0.4,3.7,0.7,5.3-0.7c0.4,1.1,1.3,2.7,2.6,2.8c1.3,0.6,3-1.4,3.5,0.8
		c0.5,1.6,2.1,2.3,3.3,1.4c1.9,0,3.1,2.6,5.1,2c2.7-0.1,5.5,1.5,8.1,0.1c2.6-1.1,5.1,0.8,7.8,0.3c2-0.5,4-1.4,5.9-2.5
		c0.3-0.4,0.7-0.6,1.1-0.7c-0.4-0.2-0.4-0.5,0.3-1.4c0.9-2.2-0.2-4.7-0.8-6.8c-0.9-2.4-3.2-3.2-5.2-3.4c-0.9-0.4-2-0.8-2.7-1.6
		c0-0.3,0.1-0.5,0.1-0.6c-0.2,0.2-0.4,0.3-0.5,0.3c-2.9-2.2-5.4-5.2-8.6-6.6c-1.5,0-2.7-0.9-3.6-2.2c-1.3,0.1-2.7,0.7-3.2-1.4
		c-1.1-1.1-3-2.4-0.5-2.6c1.2,0,3,0.3,2.7-1.8c1-1,1.1-3.5,2.7-3c2.3,0.3,1-2-0.4-2.5c-1.4-0.4-2.8-2.2-0.5-2
		c2.4-0.1,4.4-1.9,6.8-2.6c1-1.4-1.4-1.8-2.3-1.2c-1-0.2-3.4,1.3-3.3-0.2c0,0,0,0,0,0c-0.1,0.7-0.4,1.2-1.4,1
		c-1.6,0.3-3.3-0.2-4.4,1.5c-2.9,1.2-6.4,0.2-8.9,2.5c-1.4,0.9-2.5-2-3,0.6c-1.1,2.1-3.5,0.7-5.2,1.1c-2.3,0-1.7,1,0.1,1.6
		c1.5,1.1,3.4,1.8,4.7,3.1c-0.6,1.7,1.3,2,2.3,1.5c2-0.7,4.2-0.9,6.2-0.3c-0.7,1.3-1.5,2.4-2.9,2.3c-1.5,0.2-3.2-1.2-4.5,0.5
		c-1.5,1.6-4,0-5.3,2c-1.2,2-3.4,1.1-5.1,0.5c0.7-1.4,1.4-3.2,0.1-4.4c-1.5-0.8-3.1-1.3-4.7-0.8c-0.8-1.2,1.9-1.9,2.7-2.5
		c0.8-0.9,3.8-0.3,3-2c-0.7-1.6-2.7-0.6-3.9-0.7c-1.9,0.1-4.3,0.5-5.5-1.8c1.9-0.5,1.2-2.6,0-2.9c-0.9,1.6-2.7,0.6-4,1.2
		c-1.4,0.1-2.7,0.6-3.5,2.1c-1.5,1.7-3,3.8-5.2,4c-1.4,0.4-0.7,1.8-0.7,2.3c0.1,0,0.2,0.1,0.3,0.1c1.3,0.8-0.4,2.9-1.1,3.4
		c-1.6-0.1-3,0.8-3.9,2.5c-0.7,1-0.9,2.3-1.1,3.6c0,0.3,0,0.6-0.1,0.9c0,0.4-0.1,0.7-0.1,1.1c-0.1,0-0.2,0-0.2-0.1c0,0,0,0,0,0.1
		c0.8,0.6-0.4,2.9-1.5,2c-1.3,0.3-1.7,2.3-1.8,3.7c0.2,1.8-2.5,1.3-2.2,3.4c1.2-0.2,2.1,1.7,2.4,2.9c0,0,0,0,0,0c1,0.9,0.4,3,2,3.3
		c1.4,1.1,3.2,0.9,4.6,2c-0.4,1.8-1.9,2.3-3.2,1.6c-1.4-0.8-2.7-0.4-4,0.1c-1.4-0.4-2.8,0.2-3.1,2c-1.7,0.7-3.4,1.4-4.7,2.9
		c-1.4,1.3-1.7,1.9-1.4-0.4c1-0.4,3-1.9,0.8-1.9c-1.2,0.2-1.7-0.3-1.5-1.1c-0.1,0.2-0.2,0.3-0.3,0.3c0-1.9-2.4-0.8-3.5-1.2
		c-1.5,0.1-2.3-1.4-3.5-0.2c-1.4,1.2-1.9-1.7-3,0.4c-1,1.6-2.7-0.1-3.5,0.8c0.4,1.7,1.7,1.9,2.7,2.9c1.9,1.6-0.1,0.8-0.8-0.2
		c-1.2-1-2.9,0.5-1,1.2c1.8,1-0.7,1.6-1.1-0.2c-1.1-1-2.7-0.6-1.1,0.8c1.9,0.8,1,1.2-0.6,0.8c0-1.4-1.3-2.3-2.4-2.9
		c-0.9-0.4,0.7-2.9-1.2-1.2c-1.2,0.3-0.5,1.8-1,3.2c0.6,1.3,1.7,2,2,3.5c0.7,0.6,3,2.3,1.6,3.1c-0.1,0.1-1.1-2.8-2.3-1.1
		c1.3,1.1,0.7,2.9-1,2.7c-0.3,0.4,2.2,0.7,2.7,1.5c1,0.2,2.3,1.2,3,2c0.6,0,3.2,0.7,2,1.7c0.3,0.8,0.9,4.1-0.6,2.5
		c-0.9-0.9-1.6-2.8-3-1.8c-1.8,0.5-2.2,0.4-1.2,2c0.1,1.6,2.2,0.4,1.9,1.9c-1.2,0.5-2.2,1.2-2.4-0.4c-1.5-0.6-2.3-0.4-1.3,1.5
		c0.8,1.1,1.2,2.7,1.4,4.3c-0.4,0.4-2.6-1.8-3.1,0.5c-0.8,0.6-1.3-2.6-2.6-2.9c-0.8,1.9-2.2,1-2.6-0.6c1.2-1.5,0-3.1-1.1-3.9
		c-1.4-0.9,0.1-3.3,1-3.2c1.4,0.7,2.4-1.6,3.8-0.1c1.5,0.4,3.2,2.5,4.6,0.7c1.6-1-1.6-0.8-2.2-1.7c-2.5-1.4-5.4-1.1-8-0.3
		c-1-0.4-1.6-2.4-2.5-3.3c1.2,0.1,3.2-1.2,1.1-1.7c-1.7,0.9-3-1.2-4.3-2.1c-0.2-0.3-0.4-0.7-0.5-1c-0.3-1.7-1.3-3-2.6-3.7
		c-2.2-1.1-1-1.1-1.3-2.5c-1.5-1.1,1.2-2.4,0.1-3.7c1-1.4-1.2-3.2,0.9-3.8c0.5-1.6-0.9-1.4-1.4-2.2c0,0.1,0,0.2,0,0.2
		c-1.5-0.2-1.7-2.2-3-2.7c-0.7-0.2-1.5-0.5-1.9-1.1c-0.5,0.3-2-1.5-2.9-1.9c-0.7-0.4-1.4-0.8-2-1.2c-0.1-0.1-0.2-0.3-0.2-0.4
		c0,0,0,0,0-0.1c-0.1,0-0.2,0.1-0.4,0.1c-1.2-0.9-2.4-1.8-3.4-2.8c-1.5,0.1-2.7-1.8-4.2-1c-1.4,0.7-1.7-2.1-3.3-2.3
		c-1-0.4-2.6-2.3-2.5-2.9c1.8,0.1,2.4,0.1,0.4-0.8c-1.2-0.8-2.4-2.2-1.8-3.9c-0.8-1.3-2.1-2.2-3.4-2.7c-0.5,1.5-1,2.5-1.9,3.4
		c-0.9,1.2-2-1.4-2.1-2.4c-0.8-1.5-0.6-1.7,0.1-1.9c-0.9,0,0.2,0,0.7-0.9c-0.9-1.8-2.1,0-3.3-1c-0.6,1.1-2.1,1.1-3.3,1.7
		c-1.1,0.5-1.9-0.2-2.6,1.6c0.6,0.6,1.9,1.9,1.7,3c-1.6,0.3-1.2,2.6-0.4,3.7c1.1,1.8,2.7,2.8,4.4,3.5c1.5,0.7,3.4,1.4,3.4,3.7
		c0.6,2.6,2.2,4.4,3.9,6c1.2,0.8,1.7,2.1,3.1,2.3c1.9,0.8,3.8,0.7,5.8,0.3c2.3,0.6-0.2,1.7-0.8,2.7c1.6,1.4,3.9,1.6,5.7,2.6
		c2.2,1.1,4.4,2.4,6.6,3.6c0.5,1.5,2.4,1.6,2.7,3.3c-0.3,1.3-0.8,3.4-2,1.6c-1.4-0.4-0.8-3.1-2.7-2.7c-1.4,0.2-2.7-0.7-3-1.6
		c-1.7-0.5-2,2.1-3.2,2.9c0.1,1.4-1.2,3.1,0.8,3.4c1.3,0.7,2.7,1,2.1,3c1.1,2-1.2,1.4-2.2,1.9c-2,0.4-0.1,3-1.7,3.5
		c-1.4,0.7-1.5,3.6-3.3,3.2c-1.5,0.4-1.9-2.6-0.4-2.6c1.4-1.3-0.5-3,1.6-2.9c1.9,0-0.3-2.2-0.2-3.3c-0.1-1.9-1.6-3-1.6-5
		c-0.6-2.3-2.2,0.6-3.2-1.3c-1.9-0.6-1.1-1.1-1.3-2.9c-0.8-1.9-2.8-0.1-3.4-0.5c1.9-0.8-0.6-2.3-1.4-1.1c-0.8-0.3-1.1-2.8-2.3-3.1
		c-1.8-0.8-4-0.4-5.7-1.9c-2.3-2-4.8-3.9-7-6c-3.3-1.2-5.5-4.7-6.5-8.5c-1.2-2.9-3.7-4.3-6.2-4.8c-1.6-0.8-3.4-0.8-4.7,0.7
		c-1.5,1.1-2.8,2.6-4.7,2.6c0.1-0.2,0.1-0.4,0.2-0.6c0,0,0,0-0.1,0c-0.1,0.2-0.1,0.4-0.2,0.6c-1.9,1.8-4,3.1-5.9,4.9
		c-2.3,0.4-4.9,1.7-7-0.2c-1.1-1.1-2.6-1.5-3.9-1c-1.7,0-3.2-1.9-5-0.7c-1.7,0.9-3.8,2.4-4.1,4.8c0.4,1.5,0.5,2.1,0,2.3
		c0.2,0.1,0.4,0.3,0.5,0.7c0,1.3,1,3.1-0.8,3.5c-1.6,1.3-3.8,1.3-4.9,3.2c-2.4,0.7-5.1,0.7-7.2,2.3c-1.4,1.1,1.1,2.3-1.3,2.4
		c-1.3,0.5-1.6,2.6-2.9,3.4c-1.4,1.1-2,2.9-2.8,4.6c0.6,1.7,1,3.7,2.8,4.1c1.2,1.2-1.6,1.6-2.3,2.4c-1.1,0.8-1.8,2.1-2.5,3.4
		c-1.1,1.2,0.5,3.3-1.6,3c-2-0.2-4.6,0.9-5,3.7c-0.6,1.4-1.9,2.4-3,1.4c-1.4,0-2.3,1.5-3.7,0.6c-2.6,0.1-5.4-0.1-7.9,0.3
		c-1.1,1.5-2.6,1.8-4.2,2c-0.9,1.7-1.3,1.9-1.5,2.3c-1.5,0.9-3.1-0.7-4.2-1.7c-0.1-1.8-1.9-2-1.3-3.4c-1.1-1.9-3.3-2.6-5.1-2.7
		c-0.5,0.2-0.7,0-0.7-0.3c0,0.1-0.1,0.3-0.1,0.4c-1.3,0.7-2.7,2-4.2,0.9c-1.3-0.1-2.6-0.6-3.8,0.3c-1.6,0.6,0.2-2.4,0.3-3.4
		c0.4-1.9-0.9-3,0-4.5c0.3-1.9-0.1-2.5-1.7-1.7c-1.9-0.5,0.1-1.5,1.1-2.1c-0.5-2.7-1.2,1-2.6,0.4c-1.8-0.1,0.2-2.5,0-3.8
		c-0.4-1.5,1.6-1.8,1.8-3.4c0.8-1.6,0.8-3,1-4.5c0.3-1.9,1.8-3.8,0.7-5.7c-0.3-1.4-1.1-3.3-0.3-4.4c0.1-0.1,0.3-0.2,0.5-0.3
		c0,0,0,0,0-0.1c-0.1,0-0.2,0.1-0.3,0.1c-1.2-1.6,1.6-3,0.5-4.3c-0.7-1.6-1.6-2.3-3-2.6c-0.5-2.2,2-3.1,3.4-3c1.5,0.3,2.5-0.4,2.6-2
		c2.4-2,4.9,0.9,7.5,0.7c2.1,0.4,4.1-1.5,6.2-1.1c4.2,2.5,9,0.9,13.5,2.1c1.4-0.4,2.8-2,4.3-0.7c1.1,1.1,2.5,1.1,3.8,1.1
		c0.2,0.3,0.7,0.5,1.2,0.5c-0.3-0.2-0.5-0.3-0.7-0.5c1.5-0.3,2.4-1.9,2.4-3.6c0.3-1.6,0.7-3.3,1-4.9c2.3-1.3-0.9,0,0-1.7
		c0.1-1.4,0.3-4,0.9-4.5c1,0.4,2.1,2.6,2.3,2.8c-0.3-2-1.8-3-2.9-4.3c0.5-1.6,1.5-2.8,0-4.2c-1-1.2-2.8-0.4-3.5-2.2
		c-1.9-1-0.6-2.3-1.4-3.4c-1-0.6-3.6-0.7-2-2.5c-1-1.2-2.3,0.8-3.4-0.7c-1.5-0.6-3.2-1.2-4.7-1.5c-0.9-1.4-2.8,1-3.3-1
		c-2.3-0.4-0.5-0.9,0.9-0.9c-1.2-1.7-1.7-0.3-0.2-2c-1.2,0.3-3.6,0.1-1.9-1.1c1.2-0.5,2.6-0.7,3.9-1.2c0.9,0.8,2.2,0.1,3-0.7
		c1.3-0.4,2.6-0.5,3.4,1c1,2,2.6-0.5,3.7,0.4c1.4-0.6,2-0.4,3.1-0.1c2.3,0.1,0-1.3,0.8-3.1c0.1-1.5-1.9-2.1-2-3.9
		c0.2-1,2.6,0.5,3.6-0.4c-0.1,1.1,0.4,3.1,2,2.1c1.5,0,3,0.5,4.4,0.6c0.7-0.1,4-1.1,1.9-1.3c-1.3-0.8,1.3-2,2-2.3
		c2-0.7,4.4-0.7,5.8-2.7c-0.1-1.6-0.5-4.2,1.2-4.6c1.3-1,3-0.5,4.3-1.2c0.1,0.5,0.4,1.1,0.7,1.7c0,0,0,0,0,0c-0.3-0.5-0.6-1-0.8-1.6
		c1.7-1,3.5-2.3,5.4-1.5c0.9-0.1,1.6-0.3,2.4-0.3c-0.1,0-0.3-0.1-0.4-0.1c-1.3-0.9-2.3-1.7-0.2-2.5c1.8-1.3,3.5-2.8,4.2-5.3
		c0.2-1.7,1.7-2.5,2.9-2.2c2.2,1.2-0.2,1.8-0.1,2.7c-0.9,1.8,1.3,1.2,2.5,1.8c0.7-0.5,3.2-2.3,1.1-2.4c-1.2-1,0.6-2-1.8-1.8
		c-0.2-1.4,0.2-2.9,1.8-3c1.8-1.1,3.8-0.4,5.7-1c1-0.1,1.8,1.6,2.9,1.5c0.2,0.3,0.3,0.7,0.2,1c0,0,0,0,0,0c0.1-0.9-0.3-1.9-1.1-2
		c-0.4-1.6,1.4-2.3,2.5-2.1c1.2,0.2,2.9-1,3.4,0.8c-0.2,2.2,1.4,0.4,1.2-0.2c2.2,1.5,0.2-1.2,1.8-1.8c0.9,0.5,4.4,0.2,2-0.4
		c-0.9-0.9,0.1-1.2-0.7-2.1c1.3-0.8-3.3-0.2-0.6-1.1c2.2-0.1,0.6-1.7-0.3-2.7c-0.6-0.9-0.2-1.2,0.4-1.3c-0.2,0-0.4,0-0.7,0
		c0.4-1.7-0.2-3.3-1.5-3.8c-1.1,0.8-2.6-0.6-0.8-1.7c1.7-1.1-1.5-2.4-0.4-4c0.1-2.5,2.2-0.1,3.2-0.7c0.7-1.9,2-2.1,2.7-0.5
		c1.7,0.4,0-3.6,2-2.9c1.2,0.1,3.1-0.3,3.9,0.5c-0.4,2.1,1.1,2.7,2.6,2.4c2-0.5,0.9,2.8-0.4,2.7c-0.5-0.3-2.9-1.3-2.1,0.7
		c-0.5,1.5-1.4,2.4-2.8,2.3c0.4,0.8-1.5,1.2-1.2,2.9c0.2,0.7-1.1,1.4-0.1,1.7c-0.3,0-0.5,0-0.8,0.1c0.9,0,1.7,0.3,2.4,1.1
		c2.2,0.5-0.2,3.2,1.4,2.4c0.8,0.7,2,0.4,3.1,1.1c1,0.4,3.6-1.2,2.6,1.1c-1.6,0.5-2.1,2-0.1,1.4c1.1-0.1,2.4,1.2,3.1-0.9
		c2.2-0.1,4.2-1.1,6.2-2c1.4,0.1,2,0.1,3.2,1.3c0.9,1.5,2.8-0.7,3.1,1.2c-0.3,2,1.8,1.7,2.5,2.1c0.3,0.1,0.6,0.5,0.8,1
		c-0.2-0.7-0.2-1.2,1-0.4c0.9-0.3-1-2.8,0.7-2.6c2.4-0.4,4.8-1.2,7.2-1.3c1.9-0.6,3.4-2.4,5.5-2.7c2.8-0.7,5.7-1.7,8.5-1.2
		c1.6,0.8,3.1,1.4,0.6,0.4c-1.2-0.6,0.3,2.5,1.2,2.6c2.2,0.7,4.2-0.6,6.2-1.4c-0.7,0.5-3.8,1.4-2.5,2c1.4-0.4,2.7-1.5,4.2-1.8
		c-0.1,0-0.3,0-0.4,0c1.7-0.8,2.4-1.3,0.2-0.8c-1.1,0.6-1.3-1.3-0.1-2.1c2.2-0.1,4.4,0.5,6.6,0c0.5-1.4-0.3-2.2,0.7-2.7
		c-0.4,0-0.7,0-0.2-0.7c-1-1.3-1.3-2.9-1.3-4.6c0,0,0.1-0.1,0.2-0.2c-1-0.1-0.6-2.1-0.5-3.4c0.2-1.7,2.7-1.3,2.1-3.4
		c0.1-1.3,1.5-2.4,2.4-2.8c1.6-0.2,3.1-0.8,4.6-1c0.2,1.6,2.2,1.7,3,2.7c0.5,2.6,3.2,2.8,5,2.1c1.2-0.1,2.7-1.1,2.1-2.8
		c-0.3-1.3-0.8-2.9,0.2-3.6c0.7-1.1,1-3.7-0.7-2.5c-0.8,1.4-2.7,0-3.2-0.6c0.6-3-0.6-1.3-1.6-2.8c0.1-1.2-0.2-2.1,0.6-2.7
		c1.4-0.2,2.8-0.1,3.7-0.9c1.1-0.7,2-0.7,3.2-0.6c0.5-1.7,2.7,0.8,3.6-0.5c0.8-0.4,2.2,0,3.5-0.2c2.1-0.1,4.3,0.4,6.4,0.9
		c1.8-0.5,4.1,1.1,5.3-0.9c0.2,0.1,0.4,0.2,0.5,0.3c0-0.1-0.1-0.1-0.1-0.2c-1.9-0.7-0.2-2.4,0.9-0.9c0.6-1.1,1.6-0.8,3.1-0.7
		c0.8-1.2,1.9-2,3.3-1.4c1.4,0.4,3,1.6,4.4,0.4c-1.2-1.9-3.2-2.7-5.1-2.2c-1.6,0.1-3.5,0.3-4.5-1.4c1.1-1.3,0.1-1.7,0.2-2.3
		c-0.7,1.2-2.4,0.9-3.5,1.3c-1.5-0.2-2.5,1.5-3.8,0.3c-1.3,0.3-2.1,1.3-3.5,0.5c-0.4-2.6-0.1,0.5-1.7,0.7c-1.6-0.6-2.3,1.4-3.3,0.5
		c-1-0.6-2.2,0.9-3.6,0.8c-0.8,0.2-2.6-0.1-3.5,1c-0.9,0.3-2.6-0.1-3.5,0.2c-1.3,0.5-2.8,0.7-4.1,0.3c-2.3-0.4,0.1-3-1.9-2.4
		c-1.6,0.2-2.3,0.7-2.6-0.5c-1.3,0.3-2.5-0.9-3.8-1.1c-1.7-0.9-1.7-3.6-1-5.3c0.6-1.7-0.2-3.1-1.4-4.2c-0.5-1,1.5-3.1-0.1-3.9
		c-1.9,0-0.9-2.3,0.4-2.7c2-0.1,0.5-3.1,2.5-2.5c1.2,0.5,2.8,0.7,3.5-0.9c0.6-1.3,0.8-3.9,2.2-1.9c1.5-0.3,2.7-2,4.1-2.9
		c2.1-1.5,4.1-3,6.2-4.5c1.4-0.9,2.9-1.2,4.4-0.9c0.6-1.8-2-1.6-0.6-3.5c0.5-1.9-2.1-1.6-3.1-1.8c-1.4-0.3-2.5-1.9-4.1-1.5
		c0,0,0,0,0,0c0,0,0,0,0,0c0,0,0,0,0,0c0,0,0,0,0,0c-1.6-0.2-3.2,1-4.6,0.6c-1.4-0.4-2.7-2.3-4-0.9c-1.8,0.7-2.4,3.7-4.6,3.2
		c-1.6,0.2-2.4,1.4-0.7,2.4c-0.7,1.1-2.8,1.4-3.1,2.2c0.5,0.9,3.6,1.8,1.7,2.6c-2,0.7-2.5,3.7-4.5,4.1c-1.5,0.6-3.1,1.8-4.6,2.1
		c-1.4-1.4-2.4,0.7-3.4,1.4c-1.7,0.2-3.1,1.3-4.2,2.8c-1.3,0.2-3.2-0.6-2.1,1.6c-0.9,1.8-2.3,1.1-3.7,0.7c0.5,1.7,1.6,2.7,0.7,4.5
		c-0.1,1.5-2.9,0.6-1.7,3c0,1.5,0.4,3.3,1,4.2c-1.1,0.9,2.1,0.2,2.6,1.2c1.6-0.8,2.3,1.8,3.6,2.4c1.4,0.3,2.5,0.7,3.3,2.1
		c1.5,1.5-1.4,1.2-2.1,2.3c-1.7,0.5-3.5,2.1-5.2,0.9c-1.8,0-3.6-1.3-5.3-0.9c-1.5-0.6-2.7,1.3-0.4,0.6c1.2,0.4,2.5,0.8,3.6,1.3
		c1.2,0.7,2.2,0.2,3.4,0c1.1-0.6,2.6-0.2,3.4-0.8c1.4,1.3-2.4,0.1-1,1.8c-1.5-0.1-2.1,2.2-3.4,1.7c0.1-2.7-0.7-0.5-1.5,0.5
		c-1.3,0.9-2.2,0.6-3.2,1.2c-1.2,0-3.7-0.3-2.1,1.6c1.5,0.1,1.8,3.2,0.6,3.7c-2.3-0.4,0.1,1.4-0.5,2.3c1.4,1.1-1.4,2.3-0.9,4
		c-0.1,1.9-1.6,3.2-2.4,4.7c-0.7,2.5-2,0.5-3.3,0.9c-1.3,0.7-2.8,0-4.2,0.1c-0.2,1.5-2.5,0.5-2.8,2.7c0.8,1,0.5,3.2-1.3,2.2
		c-1.7-0.3-3.4,1.2-5.1,0.5c-1.9,0.2-1-1.2-0.2-2.3c-1.3-1.1-2.3-2.4-3.3-3.9c1.7-0.4,1.2-1.1,2.6-1.8c-0.8-0.8-1.7-1.5-2.8-2.3
		c-1.4-0.4-1.3-3.6-2.9-3.3c0.7-1.8-1.6-2.5-1.3-3.8c1.2-1.5,0.7-3.1-1-2.2c-0.6-1-2-0.7-1.7-3.1c-0.7-1.2-0.6-3.6,0.9-2.1
		c-0.2-0.3-0.5-0.6-0.8-0.7c-0.7-1.4-2.7,0.8-3.2-1.5c0.3-1.3-0.8-2.9-1.3-0.5c0.4,1.1-1.1,2.6-2.1,2.8c-1.3-0.3-2.6-0.2-3.8,0.8
		c-0.1,1.2-2.1,1.7-3,2.5c-1.2,0.8-2.8,1.3-3.7,2.4c-0.8,0.9-2.4,0.3-3.5,0.7c-1.3-0.2-3,1.1-3.8-0.3c-1.2-0.3-2.7,0.5-1.5-0.7
		c-2-0.3-3.7-1.9-5.7-1.9c-1.6-1.1-0.7-2.7-0.6-3.5c1,1.2,1.7,0.1,3.3,1.2c-1.9-1.2,2.6-1.5-0.1-1.3c-1.5,0.9-2.1-1.4-0.2-1.5
		c3-1-2,0.1-0.3-1.2c2-2.5-1.3,1.5-1-0.4c-1-1.2-0.3,2-2.2,1.1c-0.3-1.3-1.3,0.9-1.8-1.7c1.3-2.1,2,0.1,2-0.8c1.7,0.6,1-0.5,2.6-0.5
		c2.2-0.9,1.3-0.7-0.4-0.3c-2.3,0-1-0.9,0-1.8c0.9-1.8-2-0.8-2.9-0.8c-2.2-0.5-0.4-1.4,0.8-2.2c1.2-1.5-1.8-0.3-2.4-1.1
		c-1.2-1.4,1.7-2.5,1.7-2.9c-1.8-0.4-1.8-1.8-1.3-3.2c-0.8-2.2,1.6-1.6,2.7-1.9c2.4,0.4,0.4-0.9-0.7-1.3c-0.5-1.7,2.2-0.8,2.8-2
		c0.9-1.1,3.1,0.9,3.5-1.2c0.3-1.8,2.4-0.3,3.5-0.4c1.8,0.2,2.6-1.1,0.3-1.1c-2-0.3-1.2-2.3,0.5-1.6c1.7,0.3,3.6-0.8,5.1,0.5
		c-0.3-1.9,1.5-1.9,2.1-3.3c1.3-1,2.8,0.3,3.8-0.1c0.7-1.5,2.7-1.4,3.3-2.9c0.5-2.4,3.1-2.8,4.7-4.1c1.1-1.3,2.4-0.6,3.7-0.4
		c1.6-0.5-0.2-2.1,2-2.5c1.2-0.4,1.8-2.7,3-2.2c1.8,1,2.4-2,0.7-2.2c-0.3-0.6,1.7-2.2,2.1-3.3c1.9,0.8,2.1-0.5,3-1.6
		c2,0.3,2.2-1,0.3-1.6c-1.5-0.7,0.8-2.7,1.7-1.9c1.7,0,2.9-0.2,1-1.7c0.9-0.5,2.6-0.7,3.7-1.3c1.6-0.2,2.5-0.6,0.9-1.6
		c1.4-0.6,2.6-1.9,4.2-1.1c0.6-0.1,3.3-0.6,2.2-1.6c-1.5-0.7,1.4-1.8,1.9-2.2c1,1.1,2.4,1.6,3.4,0c-0.9-2.1-0.5-2.2,1.4-2
		c3-0.1-0.8-1.4,0.5-2c1.2-0.7,2.6-0.7,3.1-2.2c1-0.9,2.3-0.2,3.3-0.8c0.7-2,1.6-2,3-1.4c1.4-0.5,2.7-0.3,4,0.4
		c2,0.8,3.1-1.7,4.3-3.2c1.6-1.9,1.5,0.5,0.8,1.9c0,0.8,2.4-1.1,2.7-2.2c1-1,2.7-0.3,3.7-1.7c1.1-1,2.4,1.2,3.4,0.9
		c1-1.2,1.8-3.2,3.5-2.4c1.5-0.2,2.7,1.6,3.9,1.5c1.2-1.5,2.5-3.8,4.5-3.6c1.4,0.6,2.1-1.7,3.5-1.9c2.2-0.8,4.5-1,6.7-0.9
		c-1.3,1.2-3.3,1.6-4.1,3.4c-1,2.3,1.2,2.4,2.1,0.7c2-1.7,4.1-3.4,6.4-4.3c0.4,1.2-0.8,4.5,1.2,3.2c1.9-0.2,2.8-2.6,4.2-3.7
		c1.4,0,3.1-0.9,4.3,0.2c-1.6,0.7-1.6,2-2.3,3.4c0.7,0.6,2.7,1,3-1c1.2-1,2.3-2.6,3.8-1.5c2.5,1,5.1,2.2,7.8,1.9
		c1.7,0.2,2.6,2,0.4,2.2c-3.1,1.3-6.5,0.5-9.8,0.6c-0.9,0,1.9,1.4,2.6,1.5c1.5-0.1,2.3,1.9,3.7,1.3c2.1-0.3,4.4-0.8,6.4,0.5
		c-0.1,0.1-0.2,0.2-0.3,0.3c0.6-0.3,1.1-0.6,1.8-0.5c1.4-0.4,2.9-0.8,4.2-1.5c0.5,2.8,3.3,3.4,5.3,3.4c2.2-0.8,1,3.2,2.8,1.6
		c1.5-0.8,3.2,0.1,4.8-0.1c3.1,0.2,6.3-0.2,9.3,0.9c4.1,1,8.4,1.3,11.9,4.2c3.8,3.1,8.7,2.2,12.9,4.2c1.2,0.6,3.1,0.6,3.6,2.2
		c-0.7,1.9,1.4,2.3,1.6,3.8c-1.6,2.7-4.4,3.9-6.9,4.9c-4.8,1.6-9.8,2-14.7,0.9c-4.6-0.5-9.2-0.8-13.7-2.4c-3-0.8-6.1-1.6-9.2-1.8
		c-1.8-2.2-4.4-2.7-6.8-2c0.6,0.4,2.1,1.7,3.1,2.5c2.6,1,4.8,3.2,7.6,3.4c1.5,0.2,3.8,1.3,3.4,3.5c-0.4,1.6-3.3,0.7-2,2.6
		c0.5,2,2.5,3,2.5,5.3c1.3,2,3.9,0.9,5.7,1.6c1.7-0.3,1.8,2.5,3.4,2.4c1.9,0.1,3.8,0.2,5.6,0.9c1.2-0.9,3.3,0.1,3.7-1.9
		c0-1.9-2.1-2.6-3.4-1.9c-2.1,0.2-3.6-1.6-5.1-3.2c1-1.1,2-2.8,3.5-1.9c3.7,2.1,7.8,2.6,11.7,3.6c1.5,0.4,3.1,0,4.6-0.2
		c1.2,1.1,3.2-0.2,2.1-1.9c-1.2-1.4-2.8-2.2-3.3-4.3c1.1-1.8,3.3-1.6,4.9-2.4c2.7-0.7,5.5-1.5,7.7-3.6c1.4-1.3,3.3,0.1,4.9,0.1
		c2.3,0,4.2,1.9,6.5,2c0.3-1.7,1.5-2.9,2-4.4c0.2-1.7-0.7-3.4-2.3-3.3c-2.2-0.1-1.2-1.8,0.1-2.7c1.3-0.8,1.8-2.3,0.9-3.8
		c-0.9-0.5-3.1-2.2-1.1-2.7c2.3,0.3,4.6,0.9,6.9,0.5c1.8-0.2,3.9-0.4,5,1.5c1,1.2,2.3,2,3.2,3.4c-3,0.4-6.2-0.2-8.9,1.3
		c-2,1.4-0.1,2.4,1.3,2.6c1.4,0.6,2.3,2.3,3.9,2.3c3,0.9,6-0.3,9-0.2c1.7-0.9,1.6-4,3.1-5.1c3.2-0.3,6.1-2.1,9.3-2.7
		c4.7-1.7,9.6-2,14.2-4c0.2,2,2,1.9,3.1,1.1c1.3-0.6,1.1-2.9,2.9-2.6c0.5-0.1,1.8-0.4,2.5-0.2V72.8c-2.3-0.8-4.6-1.5-7-1.4
		c-1.8,1-4.4,1.2-5.6-0.8c-0.8-1.9,1.8-3.3,3-2.4c2.4,0.6,4.3-1.5,6-3.1c1.2-1.5-1.9-0.8-2.8-1.6l-0.1,0c1.9-0.5,3.5-1.9,5.3-2.7
		C448.9,60.8,449.2,60.8,449.6,60.8z M17.9,68.4c-2.8-1.4-5.7-2.1-8.6-3c-1.9-2,1-1.2,2.2-1.4c2.7,0,5.4,1,7.9,2.1
		C20.3,67.9,19.4,68.4,17.9,68.4z M64.4,118.2c-1.8-0.6-2.1,0.8-2.7,2.2c-1.1,1.6-3.1,1.7-4.6,0.8c-2.2,1.9-4.9,2.4-7.4,3.4
		c-2.3,0.8-5.2-0.5-7.1,1.8c-1.7,1.6-4.2,1.2-6.3,1.3c-2.9-0.2-5.8-1-8.4-2.5c-3-0.5-6,0.2-9-0.3c-0.8,0.1-4.1-0.4-2.1-1.3
		c1.7-0.7,3.5-1,4.7-2.8c0-0.6-2.6,0.1-3.3-0.9c-0.8-1.6-2.1-1.3-3.4-1c-1.6-0.1-3.4,0.7-4.9,0.1c-1.4-1.2,1.7-1.6,2.5-1.7
		c2.3,0,4.6-0.5,6.8-0.8c1.6-0.4,1.3-2.8-0.3-2.8c-2.1-0.4-4.3-0.9-6.5-0.4c-1.6,0.8-3.4,1-5.1,0.2c-0.5-0.1-0.9-0.3-1.1-0.9
		c1.3-1.9,3.6-0.5,5.3-1.3c-0.4-0.5-2.9-2.1-0.8-2.8c1.7,0.2,3.5,2.3,5.2,1c0.4-1.3-3.3-1.8-1-2.8c2.3,1,5.1,0.4,7.2,2
		c1.7,1.2,0.4,3.1-0.3,3.8c1.1,0.9,2.1,3.3,3.3,1.4c1.2-1.1,3.4-0.4,4.2-2c-0.6-1.5-0.3-3.8,1.3-2.9c1.1,1.1,2.5,2.9,4,2.5
		c-0.3-1.2-0.3-2.5,1.6-2.4c1.4-0.9,2.4,0.6,3.6,1.2c0.8,0.8,3.5,1.2,2-0.7c-1-1.6,2,0.1,2.8-0.2c2,0.1,4.3,0.6,6.1-0.9
		c-0.6-2.4,0.6-2.4,2.2-2c1.4,0,2.2,2,3.7,2c1.2,0.9,2.8,0,3.8,1.1c-0.5,1.6-0.2,2.5,1.6,2.8c1.5,0.3,3.1,0.1,4.4,0.7
		C67.6,115,66.6,118.6,64.4,118.2z M333.2,319.4c0.8,0.7,1,1.2,1.5,0c0.5-1.2,0.8-0.8,1.8-1c1-0.1,4.5-1.7,4.5-1.7s0.1,0.6-1.4,1.8
		s-1.1,1.4-0.3,2.1c0.8,0.7,0.2,1.1-0.2,1.2c-0.5,0.1-1.8,1.2-2.8,1.3c-0.9,0.1-0.7,0.3-2.8,0.3c-2.1,0-1.2-2.2-1.6-3.1
		S332.4,318.7,333.2,319.4z M278.9,316.8c0.4,1.6,2.3-0.6,2.3,0.7c-0.6,0.2,1.3,1.5,2.1,0.9c1.3-0.4,2.6-0.3,3.6,0.3
		c0.9,0.8,3.3-0.6,3.1,0.6c-0.1,1.8,1.8-0.3,2.5,0.1c1.4-1.7,0.5,2.4-0.8,1.3c-2.4,0.2-5,0.4-7.4,0.7c0.4-1.7-2-1.7-3-1.8
		c-1.3-0.2-2.7-0.1-3.9-0.6C277.2,317.7,278.7,316.2,278.9,316.8z M216.8,299.9c1.4,1.2,2.5-1.6,3.6-0.2c2.3,2.2,5.3,0.7,7.9,0.4
		c1,0,3.5-1.8,3.4,0c-0.9,1.6-2.6,3.8-1.6,5.8c1.5,1.1-0.3,2.4-1,3.3c0-0.4-0.2,0.1-0.3,0c-1.6,0.2-2.9-1.1-4.1-2.1
		c-3.1-0.8-5.8-3.4-9-3.6C213.8,302.8,215.4,299.8,216.8,299.9z M192.5,270.5c0.8-1.2,2.3-1.3,3.1-1.9c1.9,1.1,0.3-1.8,1.5-1.9
		c0.6,1.5,0.2,2.8,0.7,4.2c0.2,1.8-0.9,3.1-0.9,4.8c-0.1,1.8-1.3,2.7-2.2,1.3c-2.2-0.1,0.6-1.8-1.8-1.8c1.5-1.8-1.4-0.6,0.1-2.3
		C191.8,272.1,193,271.5,192.5,270.5z M191.9,281.1c1.9,0.5,3.4-1.1,4.9-2.2c1.2,1.4,2.7,3,2.7,5.1c-1.3,1.5-0.6,3.6-0.6,5.4
		c-0.2,1.2-0.7,4.2-2,3c-1.5-0.7-1.9,0.7-2.9,1.6c-1.3-0.2-3.1-1.8-2.2-3.6c0.5-2.2,0.8-5-0.3-6.9
		C190,282.7,190.1,280.5,191.9,281.1z M110.4,191.1c-0.5,0.4-1.2,0.6-1.8,0.6c-2.3-0.2-0.2,1.7,0,3.1c0.3,1.6,1.1,3.3,0.7,5
		c-1.2,0.8-1.5,2.7-2.1,3.8c-1.4-0.3-2.5,0.1-3.6,0.7c-2.3-0.1-4.5,0.7-6.5,2.1c-1.1,1-2.4,1.5-3.7,1.5c-1.7,0.9-3.5,0.9-5.3,1
		c0.5-1.9-0.3-3.1-1.9-2.3c-2.3-0.8,1.3-2.4,0.6-2.2c-1.1,0.3-3.9-0.4-1.5-0.7c1.2-0.1,3.2,0.7,3.1-1.5c0.6-1.6,3.1,0,3.5-1.7
		c-0.5-0.4-3.9,1-1.9-0.8c-0.4-1,0.9-2.8,2.4-2.3c1.9-0.9-0.4-1-1.3-1.1c-1.3,0-2.5-0.7-3.8-0.3c-1.7,0-0.4-1.8-0.6-1.8
		c1.5,0.3,1.7-1.7,1.7-2.2c-1.2-0.6-3.4,0.3-1.8-1.9c0.9-1.5,2.3-0.7,3.5-0.4c1.7-0.5,3.4,0.2,5,0.3c-1.6-1.9,1.7-1,2-2.7
		c-0.1-0.8-3.1,0.2-3.2-0.5c1.5-0.3,1.9-1.3,2.6-2.9c1-0.5,2.5-1.3,3.5-0.9c0.4,0.8,1.5,1,1.7,1.5c0.5-1,1.9-0.8,2.9-1.2
		c1.5-0.6,3,0.4,4.6,0.1c0.9,0.9,2.1,2.4,1.9,4C111.5,188.7,112,190.3,110.4,191.1z M112.7,181.4c0,0.4-0.8,1.1-1.2,1
		C110.3,180.8,113,178.8,112.7,181.4z M153.2,203.8c-1.1,2-3.5,2-4.9,3.8c-0.5,0.9-4.2,1-2.1,1.3c1.5,0.3,3.1,0.7,4.6,0.3
		c1.9,0.6,0,2.8-1.3,2.6c-0.7,1.2-2,0.2-3.3,1.3c-1.7,1.5-3.7-0.6-5.6,0.3c-1.4,0.9-2.6-0.7-3.9-0.1c-1.5,0.3-3.1,0.4-4.7,0.6
		c1,2.1-2-0.6-2.6,0.9c-1.3-0.8-2.5-1.1-3.9-0.5c-2-0.6-1.4,1.6-2.6,2.7c-1.2,1.1-2-1-3.2-1c-1,0.7-2.7,0.1-3.8,1.1
		c-1.1,0.6-1.9,2.6-3.1,1c-2.6-0.2-1-0.8,0.6-1.5c1.3-0.5,1.9-2.1,3.3-2.3c1.4-1.1,1-2.7,2.7-2.9c-0.1-1.6,2.1-1.1,3.2-1.2
		c1.2,0.2,3,0.7,3.9,0c0.1-0.8,2.9-3.5,0.9-2.5c-2,1.5-4.2,0.7-6.2-0.3c-2.2-1.1-4.9,0.4-6.9-1.3c-0.2-1.4,2.2-1.6,3.3-1.9
		c1.4-0.4,3.2-1.2,3-3.3c0.6-2.3-1.3-1.6-2.5-1.7c-0.8-0.6,1.5-2.1,2.4-2.3c2.2-0.8,4.6-0.3,6.9-0.8c-1.1-1.3-0.7-3.1,0-4.5
		c1.2-2.4-1.3-1.1-2.3-1.8c-1.6-0.5-1.5-2.6-0.2-3.5c2.2-1.1,0.1-1.5-1.2-1.6c-1.5,1-3.2,1.5-4.8,0.5c-0.6,1.4-2.1,1.1-3.4,0.6
		c-1.4-0.7,0.9-2.4,1.4-3.4c1.9-1.4-1.2-1.6-0.7-3.5c1.7,0.2,1.9-2.9,0.3-2.2c-1,1.4-2.5,1.3-3.8,2.1c-1.4-0.1,0-2.9,0.8-3.8
		c1.7-1.2-1.1-3.2-1.5-1.3c-0.9,1.5-3.2,0.5-1.7-1.1c0.9-1.2,2.4-2.1,1.2-3.9c2.1-0.2,1.1-1.7-0.2-2.5c0.9-1.9,2.4-0.3,3.7-0.8
		c0.8-0.6-2.8-2.9-0.2-2.7c2.9,0.2-0.8-1.6,0.9-2.6c1-1.1,2.4,1.3,3.7,0.6c2.3-0.3,4.7-1.2,6.9-0.5c1.5,1.3-1.5,2-2.3,2.5
		c-1.5,0.9-3.6,1.2-4,3.3c1.3,1.3,3.3,0.4,4.8,0.4c2.4,0.1,4.7,0.3,7.1,0c1.9,0.9,0.4,2.1-0.3,3.5c0.3,1.4-1.7,2.4-2.3,3.6
		c-0.3,1.2-3.4,1.1-2.7,1.6c1.4,0.5,2.8,1,0.6,1.6c-1.4,0.2-2.6,1.1-4.1,0.7c-2.4-0.3,0.4,1,1.3,0.8c1.8,0.8,3.4-1.6,5.2-0.2
		c1.5,0.1,2.5,1.4,3.7,2.4c1.8,0.3,1,2.2,1.8,3.6c0.5,2,1.9,3.1,3.6,3.1c1.4,0.5,2.3,2.4,3.5,3.4c1.3,1-0.6,3.2,0.7,3.7l0,0
		c1.2,0.6,2.8,1.5,2.6,3.3c-1.7,1.3-1.2,2.5,0.6,2.1c1.6-1.8,4.1-1.1,6-0.4C153.1,200.4,153.9,202.5,153.2,203.8z M222.7,191.3
		c0.6,0.4,1.3,0.5,1.7,1.3C223.4,192.8,221.4,191.8,222.7,191.3z M207.7,180.1c1.4-0.9,2.2-2.1,3.1,0.1c1.9,1.7,1.3-1.9,2.3-2.2
		c1.7-0.8,2.1,1.4,1.4,2.8c-2.4,1-0.1,1.7-0.3,2.4c-0.8,0.5-1.3,1.5-2.2,1.7c-0.7-1.7-2-1.5-3.3-1.5
		C207.9,183.4,206.5,180,207.7,180.1z M193.4,170.2c1.9-0.3,4.1,0,5.4-2.1c1-1.5,2.7-1.7,4.2-1.7c1.8-1.8-0.4,1,0.4,1.9
		c-0.1,1.3-1.1,2.9-2.5,2.6c-1.5,0.2-3.1,0-4.6-0.1c-1.5-0.5-2.3,0.6-3,2c-1.3,1.1-1.7,0.6-2.9-0.5
		C191.2,171.2,192.1,169.5,193.4,170.2z M261.7,22.4c-3,1.1-6.3,0.4-9.1,2.1c-1.2,2.3-2.5,4.8-4.4,6.3c-1.6,0.2-3.3,0-4.4,1.6
		c-1.3,0.7-1.4,2.8-2.1,3.5c-2.9,1.3-5.8-0.5-8.6-1.1c-2.3-0.6-4.6-1.6-6.8-2.8c1.9-1.9,4.4-0.9,6.6-1.3c2.1-0.1,4.2-0.2,6.1-1.5
		c-2.3-1.4-4.8-0.2-7.2-0.3c-2.5,0.3-5,0.4-7.4,0.4c-1.9-1.6-0.8-1.8,1-1.8c4.4-0.9,8.9-1.2,13.2-3c-2.9-0.7-5.9-0.8-8.7-2.1
		c-2.3,0.3-3.8,2.8-6.1,3.1c-2.4,0.8-4.9,0.2-7.1-1c-1.9-0.9-4-1.2-5.7-2.7c1.4-0.4,2.9-0.8,4.3-1.2c-1.1-1-2.2-2.3-3.6-1.3
		c-1.4,0.6-3.1,0.9-4.2-0.7c-2.1-1.2-0.4-2,1-2.4c2.3-0.2,4.6-0.5,6.9-0.4c1.3-0.2,2.7-0.2,4.1-0.3c-0.3,2,0.8,2.9,2.4,2.7
		c1.3,0,3.1,1.1,3.4-1.1c0.2-1.7,2.4-1.7,3.5-1.3c2.5,1.2,4.4,3.8,7.1,4.3c2.2-0.2,0.9-1.8-0.3-2.7c-1.5-1.5-0.7-2.8,0.9-3.1
		c1.5-0.6,3.2,0.3,4.7,0.6c1.5,0,2.9-0.1,4.3,0.6c-0.4,1.6-1,3.2,1,3.1c1.3-0.7,2.9-2.1,4.2-0.5c2.8,2.4,6.4,1.7,9.6,3.1
		C261,21.1,264.1,22.2,261.7,22.4z M296.2,15.3c-3.8,1.5-7.6,2.9-11.6,3c-2.6,0.2-5,1.9-7.7,1.4c-4.5-0.1-9-0.2-13.6-0.3
		c-0.6-2.1,2-1.2,3.1-1.8c1.1,0,1.7-1.5,2.5-2.2c-5.3-0.1-10.6-0.2-15.9,0.2c-1.6-0.3-3.2-0.6-4.8-0.9c1.3-1.2,2.8-1.6,4.4-2.1
		c1.5-1.2,3.1-2.1,4.6-3.1c1.8,1.1,3.6,2.6,5.7,2.4c2.4-0.1,5.1-0.7,7.3,1.1c1.4-0.4,2.7-1.3,3.8-2.5c1.8-1.1,2.3-0.8,1.3,1.4
		c-0.3,2,2.2,1.3,3.1,0.7c2-1.3,4.5-2.4,6.7-1.3c1.3,2.1,3.5,1.3,5.3,1.2c2.3-0.3,4.8-0.1,7,0.5C299.6,14.3,297.4,14.9,296.2,15.3z"
		/>
	<path class="st0" d="M226.2,192.3L226.2,192.3C225.1,193.7,224.2,191.1,226.2,192.3z"/>
	<path class="st0" d="M444.7,208.7c-0.3,0-0.5-0.1-0.7-0.2C444.2,208.6,444.4,208.7,444.7,208.7z"/>
	<path class="st0" d="M339.5,368.6h3.7c-1.9-0.1-1.4-1.4-0.7-3c0.3-1.7,0.7-3.3,0.9-5c0,0,0,0,0,0c0-1-0.2-1.7-0.2-2.5
		c-0.2,0.4-0.4,0.8-0.6,1.1c-1.9,2.1-2.3,5.5-2.9,8.4C339.7,367.9,339.6,368.3,339.5,368.6z"/>
	<path class="st0" d="M367.7,233.3c0.5,0.1,0.9,0.3,1.4,0.3C368.6,233.4,368.2,233.3,367.7,233.3z"/>
	<path class="st0" d="M370.3,232.7c-0.2,0.4-0.5,0.7-0.8,0.8c0.2,0,0.4-0.1,0.6-0.3C370.2,233.1,370.2,232.9,370.3,232.7z"/>
	<path class="st0" d="M362.3,234.9c-0.2,0.1-0.5,0.1-0.7,0.2c0,0.2-0.1,0.4-0.1,0.6C361.6,235.4,361.9,235.1,362.3,234.9z"/>
	<path class="st0" d="M364.7,233.3c0,0.2-0.1,0.3-0.1,0.5c0.2-0.2,0.5-0.4,0.7-0.5C365.1,233.3,364.9,233.3,364.7,233.3z"/>
	<path class="st0" d="M370.4,229C370.4,229,370.4,229,370.4,229C370.4,229,370.4,229,370.4,229C370.4,229,370.4,229,370.4,229z"/>
	<path class="st0" d="M370.7,229.8c0,0.1,0,0.2,0,0.3c0,0.2,0,0.4,0,0.7C370.8,230.4,370.8,230.1,370.7,229.8z"/>
	<path class="st0" d="M370.7,229.6C370.7,229.6,370.7,229.6,370.7,229.6C370.7,229.6,370.7,229.6,370.7,229.6z"/>
</g>
</svg>
